<?xml version="1.0" encoding="UTF-8" standalone="no"?>
<!-- Created with Inkscape (http://www.inkscape.org/) -->

<svg
   xmlns:dc="http://purl.org/dc/elements/1.1/"
   xmlns:cc="http://creativecommons.org/ns#"
   xmlns:rdf="http://www.w3.org/1999/02/22-rdf-syntax-ns#"
   xmlns:svg="http://www.w3.org/2000/svg"
   xmlns="http://www.w3.org/2000/svg"
   xmlns:sodipodi="http://sodipodi.sourceforge.net/DTD/sodipodi-0.dtd"
   xmlns:inkscape="http://www.inkscape.org/namespaces/inkscape"
   width="210mm"
   height="297mm"
   viewBox="0 0 210 297"
   version="1.1"
   id="svg8"
   inkscape:version="0.92.1 r15371"
   sodipodi:docname="adidas.svg">
  <defs
     id="defs2">
    <inkscape:perspective
       sodipodi:type="inkscape:persp3d"
       inkscape:vp_x="0 : 148.5 : 1"
       inkscape:vp_y="0 : 1000 : 0"
       inkscape:vp_z="210 : 148.5 : 1"
       inkscape:persp3d-origin="105 : 99 : 1"
       id="perspective127" />
  </defs>
  <sodipodi:namedview
     id="base"
     pagecolor="#ffffff"
     bordercolor="#666666"
     borderopacity="1.0"
     inkscape:pageopacity="0.0"
     inkscape:pageshadow="2"
     inkscape:zoom="1.7536248"
     inkscape:cx="472.34516"
     inkscape:cy="744.62248"
     inkscape:document-units="mm"
     inkscape:current-layer="layer1"
     showgrid="false"
     inkscape:window-width="1280"
     inkscape:window-height="964"
     inkscape:window-x="0"
     inkscape:window-y="0"
     inkscape:window-maximized="1" />
  <metadata
     id="metadata5">
    <rdf:RDF>
      <cc:Work
         rdf:about="">
        <dc:format>image/svg+xml</dc:format>
        <dc:type
           rdf:resource="http://purl.org/dc/dcmitype/StillImage" />
        <dc:title></dc:title>
      </cc:Work>
    </rdf:RDF>
  </metadata>
  <g
     inkscape:label="Layer 1"
     inkscape:groupmode="layer"
     id="layer1">
    <path
       style="opacity:1;fill:#000000;fill-opacity:1;stroke:#000000;stroke-width:0;stroke-linecap:square;stroke-linejoin:miter;stroke-miterlimit:4;stroke-dasharray:none;stroke-opacity:1;paint-order:markers stroke fill"
       d="M 374.56445 136.5918 A 144.91788 229.83259 0 0 0 303.73242 333.82227 A 144.91788 229.83259 0 0 0 306.05078 372.63867 L 446.76367 372.63867 A 144.91788 229.83259 0 0 0 448.65039 336.97266 A 144.91788 229.83259 0 0 0 374.56445 136.5918 z M 99.251953 229.89062 A 229.83259 144.91788 52.217437 0 0 128.43555 372.63867 L 300.98242 372.63867 A 229.83259 144.91788 52.217437 0 0 280.57227 342.87109 A 229.83259 144.91788 52.217437 0 0 99.251953 229.89062 z M 668.70312 230.58594 A 149.06351 234.22455 40.882187 0 0 478.63281 343.56641 A 149.06351 234.22455 40.882187 0 0 457.69141 372.63867 L 638.66797 372.63867 A 149.06351 234.22455 40.882187 0 0 668.70312 230.58594 z M 143.53711 399.41992 A 229.83259 144.91788 52.217437 0 0 155.375 417.13086 L 610.39062 417.13086 A 149.06351 234.22455 40.882187 0 0 622.69141 399.41992 L 143.53711 399.41992 z M 176.31055 443.91211 A 229.83259 144.91788 52.217437 0 0 193.03906 462.05273 L 570.97656 462.05273 A 149.06351 234.22455 40.882187 0 0 588.53516 443.91211 L 176.31055 443.91211 z M 223.0625 488.83594 A 229.83259 144.91788 52.217437 0 0 345.42773 542.14648 A 229.83259 144.91788 52.217437 0 0 346.07031 495.81055 A 144.91788 229.83259 0 0 0 377.81836 534.20312 A 144.91788 229.83259 0 0 0 410.43359 492.0625 A 149.06351 234.22455 40.882187 0 0 410.64648 542.8418 A 149.06351 234.22455 40.882187 0 0 540.02344 488.83594 L 223.0625 488.83594 z "
       transform="scale(0.26458333)"
       id="path60" />
  </g>
</svg>
